<svg width="21" height="21" viewBox="0 0 21 21" fill="none" xmlns="http://www.w3.org/2000/svg">
<g clip-path="url(#clip0_1_3278)">
<path d="M20.7439 10.2492C20.7439 9.92634 20.5997 9.61389 20.3445 9.38475L13.0561 2.54202C12.7677 2.28164 12.4681 2.16708 12.1575 2.16708C11.4475 2.16708 10.9372 2.63576 10.9372 3.27108C10.9372 3.60436 11.0815 3.88557 11.3033 4.09387L13.7994 6.46852L17.0165 9.22853L14.4428 9.08271H0.997468C0.254204 9.08271 -0.256098 9.56181 -0.256098 10.2492C-0.256098 10.9262 0.254204 11.4053 0.997468 11.4053H14.4428L17.0165 11.2595L13.7994 14.0195L11.3033 16.3941C11.0815 16.6024 10.9372 16.8836 10.9372 17.2169C10.9372 17.8522 11.4475 18.3209 12.1575 18.3209C12.4681 18.3209 12.7677 18.2064 13.0339 17.9668L20.3445 11.1032C20.5997 10.8741 20.7439 10.5617 20.7439 10.2492Z" fill="white" fill-opacity="0.8"/>
</g>
<defs>
<clipPath id="clip0_1_3278">
<rect width="20.5" height="20.5" fill="white" transform="scale(1.02439)"/>
</clipPath>
</defs>
</svg>
