<svg width="21" height="21" viewBox="0 0 21 21" fill="none" xmlns="http://www.w3.org/2000/svg">
<path d="M10.004 12.9156C10.463 12.9156 10.835 12.5141 10.835 12.0539V3.76295L10.7638 2.53311L11.2149 3.16895L12.2516 4.33186C12.3862 4.49082 12.5919 4.58285 12.7898 4.58285C13.1855 4.58285 13.5179 4.2733 13.5179 3.83825C13.5179 3.62073 13.4388 3.4534 13.2963 3.29444L10.653 0.608875C10.4314 0.382986 10.2256 0.30769 10.004 0.30769C9.79031 0.30769 9.57662 0.382986 9.36294 0.608875L6.71958 3.29444C6.56921 3.4534 6.49007 3.62073 6.49007 3.83825C6.49007 4.2733 6.82247 4.58285 7.21027 4.58285C7.41604 4.58285 7.62181 4.49082 7.76426 4.33186L8.79311 3.16895L9.25214 2.53311L9.18091 3.76295V12.0539C9.18091 12.5141 9.54497 12.9156 10.004 12.9156ZM5.42956 19.6923H14.5705C16.3354 19.6923 17.2693 18.7051 17.2693 16.8561V8.73251C17.2693 6.88357 16.3354 5.89635 14.5705 5.89635H12.4891V7.81222H14.4043C15.0849 7.81222 15.4648 8.18034 15.4648 8.94167V16.6554C15.4648 17.4083 15.0849 17.7764 14.4043 17.7764H5.59576C4.90722 17.7764 4.54317 17.4083 4.54317 16.6554V8.94167C4.54317 8.18034 4.90722 7.81222 5.59576 7.81222H7.54266V5.89635H5.42956C3.6726 5.89635 2.7308 6.88357 2.7308 8.73251V16.8561C2.7308 18.7051 3.6726 19.6923 5.42956 19.6923Z" fill="white"/>
</svg>
