<svg width="26" height="26" viewBox="0 0 26 26" fill="none" xmlns="http://www.w3.org/2000/svg">
<g clip-path="url(#clip0_1_3279)">
<circle cx="13" cy="13" r="13" fill="#E8EAED" fill-opacity="0.2"/>
<path d="M5.05557 13C5.05557 13.5885 5.53964 14.063 6.11863 14.063H11.937V19.8814C11.937 20.4604 12.421 20.9444 13 20.9444C13.579 20.9444 14.0631 20.4604 14.0631 19.8814V14.063H19.8814C20.4604 14.063 20.9445 13.5885 20.9445 13C20.9445 12.421 20.4604 11.9369 19.8814 11.9369H14.0631V6.1186C14.0631 5.53961 13.579 5.05554 13 5.05554C12.421 5.05554 11.937 5.53961 11.937 6.1186V11.9369H6.11863C5.53964 11.9369 5.05557 12.421 5.05557 13Z" fill="white" fill-opacity="0.8"/>
</g>
<defs>
<clipPath id="clip0_1_3279">
<rect width="26" height="26" fill="white"/>
</clipPath>
</defs>
</svg>
