<svg width="16" height="16" viewBox="0 0 16 16" fill="none" xmlns="http://www.w3.org/2000/svg">
<path d="M5.26658 14.3932H10.7334C11.4741 14.3932 11.8359 14.0157 11.8359 13.1899V8.86051C11.8359 8.11731 11.5373 7.73391 10.9229 7.66903V6.18263C10.9229 3.95893 9.50448 2.88541 7.99997 2.88541C6.49546 2.88541 5.07708 3.95893 5.07708 6.18263V7.69852C4.51432 7.787 4.16403 8.1645 4.16403 8.86051V13.1899C4.16403 14.0157 4.5258 14.3932 5.26658 14.3932ZM6.00161 6.05876C6.00161 4.57826 6.92614 3.79377 7.99997 3.79377C9.0738 3.79377 9.99833 4.57826 9.99833 6.05876V7.66313L6.00161 7.66903V6.05876Z" fill="white"/>
</svg>
