<svg width="20" height="20" viewBox="0 0 20 20" fill="none" xmlns="http://www.w3.org/2000/svg">
<path d="M0 10.005C0 10.3026 0.137348 10.6002 0.380349 10.8184L7.35341 17.3551C7.60697 17.5832 7.88167 17.6924 8.18806 17.6924C8.85367 17.6924 9.33967 17.246 9.33967 16.6409C9.33967 16.3235 9.21289 16.0557 8.99102 15.8573L6.61384 13.5957L3.54992 10.9672L6.01162 11.106H18.8167C19.514 11.106 20 10.6498 20 10.005C20 9.35034 19.514 8.89406 18.8167 8.89406H6.01162L3.56049 9.03293L6.61384 6.40435L8.99102 4.14278C9.21289 3.9444 9.33967 3.67658 9.33967 3.35917C9.33967 2.7541 8.85367 2.30774 8.18806 2.30774C7.88167 2.30774 7.59641 2.41685 7.32171 2.66483L0.380349 9.18172C0.137348 9.39994 0 9.69751 0 10.005Z" fill="white" fill-opacity="0.8"/>
</svg>
