<svg width="20" height="5" viewBox="0 0 20 5" fill="none" xmlns="http://www.w3.org/2000/svg">
<path d="M2.30762 0C3.5821 0 4.61519 1.03315 4.61523 2.30762C4.61523 3.58212 3.58212 4.61523 2.30762 4.61523C1.03315 4.61519 0 3.5821 0 2.30762C4.05863e-05 1.03317 1.03317 4.05866e-05 2.30762 0ZM10 0C11.2745 0 12.3076 1.03317 12.3076 2.30762C12.3076 3.58212 11.2745 4.61523 10 4.61523C8.7255 4.61523 7.69238 3.58212 7.69238 2.30762C7.69245 1.03317 8.72554 1.28846e-07 10 0ZM17.6924 0C18.9668 4.03273e-05 19.9999 1.03319 20 2.30762C20 3.5821 18.9669 4.61519 17.6924 4.61523C16.4179 4.61523 15.3848 3.58212 15.3848 2.30762C15.3848 1.03317 16.4179 0 17.6924 0Z" fill="white" fill-opacity="0.8"/>
</svg>
