<svg width="16" height="16" viewBox="0 0 16 16" fill="none" xmlns="http://www.w3.org/2000/svg">
<g clip-path="url(#clip0_1_3049)">
<path d="M9.99999 1.33335C10.4682 1.33329 10.9281 1.4565 11.3336 1.69059C11.7391 1.92468 12.0758 2.26139 12.3098 2.66688C12.5439 3.07236 12.6671 3.53232 12.667 4.00051C12.6669 4.4687 12.5435 4.92862 12.3093 5.33401L15.3333 5.33335V6.66668H14V13.3333C14 13.5102 13.9298 13.6797 13.8047 13.8048C13.6797 13.9298 13.5101 14 13.3333 14H2.66666C2.48985 14 2.32028 13.9298 2.19525 13.8048C2.07023 13.6797 1.99999 13.5102 1.99999 13.3333V6.66668H0.666656V5.33335L3.69066 5.33401C3.3599 4.76127 3.25378 4.08605 3.39291 3.43946C3.53204 2.79287 3.90649 2.22106 4.44355 1.83505C4.9806 1.44904 5.64194 1.27638 6.29916 1.3506C6.95637 1.42482 7.56255 1.74062 7.99999 2.23668C8.24972 1.95227 8.55736 1.72453 8.9023 1.56873C9.24724 1.41294 9.6215 1.33268 9.99999 1.33335ZM7.33332 6.66668H3.33332V12.6667H7.33332V6.66668ZM12.6667 6.66668H8.66666V12.6667H12.6667V6.66668ZM5.99999 2.66668C5.654 2.66513 5.32096 2.79814 5.07122 3.0376C4.82148 3.27706 4.67461 3.60423 4.66163 3.94997C4.64865 4.29572 4.77057 4.63298 5.00165 4.89049C5.23273 5.14801 5.55486 5.30561 5.89999 5.33001L5.99999 5.33335H7.33332V4.00001C7.33334 3.68139 7.21925 3.37329 7.01172 3.13152C6.80419 2.88975 6.51694 2.73029 6.20199 2.68201L6.09932 2.67001L5.99999 2.66668ZM9.99999 2.66668C9.66361 2.66657 9.33961 2.79362 9.09296 3.02235C8.8463 3.25107 8.69522 3.56458 8.66999 3.90001L8.66666 4.00001V5.33335H9.99999C10.3364 5.33345 10.6604 5.20641 10.907 4.97768C11.1537 4.74896 11.3048 4.43545 11.33 4.10001L11.3333 4.00001C11.3333 3.64639 11.1928 3.30725 10.9428 3.05721C10.6927 2.80716 10.3536 2.66668 9.99999 2.66668Z" fill="white" fill-opacity="0.6"/>
</g>
<defs>
<clipPath id="clip0_1_3049">
<rect width="16" height="16" fill="white"/>
</clipPath>
</defs>
</svg>
