<svg width="16" height="16" viewBox="0 0 16 16" fill="none" xmlns="http://www.w3.org/2000/svg">
<g clip-path="url(#clip0_1_3232)">
<path d="M2.93733 9.68204L5.20533 7.41404L7.09067 9.30004L9.19533 7.19537L8 6.00004H11.3333V9.33337L10.138 8.13804L7.09067 11.1854L5.20533 9.30004L3.55533 10.9494C4.30428 12.0766 5.45375 12.877 6.77082 13.1883C8.08789 13.4996 9.47406 13.2985 10.6484 12.6258C11.8228 11.9532 12.6975 10.8592 13.0953 9.56565C13.4931 8.27208 13.3843 6.87565 12.7908 5.65933C12.1974 4.44302 11.1638 3.49779 9.89936 3.0152C8.63497 2.53261 7.23439 2.54875 5.98146 3.06035C4.72852 3.57195 3.71693 4.54074 3.15169 5.77041C2.58644 7.00008 2.50981 8.39865 2.93733 9.68271V9.68204ZM1.912 10.7207L1.90533 10.714L1.908 10.7114C1.52795 9.85805 1.33214 8.93417 1.33333 8.00004C1.33333 4.31804 4.318 1.33337 8 1.33337C11.682 1.33337 14.6667 4.31804 14.6667 8.00004C14.6667 11.682 11.682 14.6667 8 14.6667C5.28667 14.6667 2.95333 13.0467 1.912 10.7207Z" fill="white"/>
</g>
<defs>
<clipPath id="clip0_1_3232">
<rect width="16" height="16" fill="white"/>
</clipPath>
</defs>
</svg>
