<svg width="16" height="16" viewBox="0 0 16 16" fill="none" xmlns="http://www.w3.org/2000/svg">
<g clip-path="url(#clip0_0_26)">
<path d="M7.99999 2C7.26666 2 6.66666 2.6 6.66666 3.33333C6.66666 4.06667 7.26666 4.66667 7.99999 4.66667C8.73332 4.66667 9.33332 4.06667 9.33332 3.33333C9.33332 2.6 8.73332 2 7.99999 2ZM7.99999 11.3333C7.26666 11.3333 6.66666 11.9333 6.66666 12.6667C6.66666 13.4 7.26666 14 7.99999 14C8.73332 14 9.33332 13.4 9.33332 12.6667C9.33332 11.9333 8.73332 11.3333 7.99999 11.3333ZM7.99999 6.66667C7.26666 6.66667 6.66666 7.26667 6.66666 8C6.66666 8.73333 7.26666 9.33333 7.99999 9.33333C8.73332 9.33333 9.33332 8.73333 9.33332 8C9.33332 7.26667 8.73332 6.66667 7.99999 6.66667Z" fill="white" fill-opacity="0.6"/>
</g>
<defs>
<clipPath id="clip0_0_26">
<rect width="16" height="16" fill="white"/>
</clipPath>
</defs>
</svg>
