<svg width="16" height="16" viewBox="0 0 16 16" fill="none" xmlns="http://www.w3.org/2000/svg">
<g clip-path="url(#clip0_1_2909)">
<path d="M8 14.6667C4.318 14.6667 1.33333 11.682 1.33333 8C1.33333 4.318 4.318 1.33333 8 1.33333C11.682 1.33333 14.6667 4.318 14.6667 8C14.6667 11.682 11.682 14.6667 8 14.6667ZM7.08133 5.60999C7.04121 5.58323 6.99458 5.56784 6.9464 5.56548C6.89823 5.56311 6.85032 5.57386 6.80777 5.59657C6.76521 5.61928 6.72962 5.65311 6.70477 5.69445C6.67993 5.73579 6.66676 5.7831 6.66667 5.83133V10.1687C6.66676 10.2169 6.67993 10.2642 6.70477 10.3055C6.72962 10.3469 6.76521 10.3807 6.80777 10.4034C6.85032 10.4261 6.89823 10.4369 6.9464 10.4345C6.99458 10.4322 7.04121 10.4168 7.08133 10.39L10.334 8.222C10.3706 8.19765 10.4006 8.16465 10.4213 8.12592C10.4421 8.08719 10.4529 8.04393 10.4529 8C10.4529 7.95606 10.4421 7.9128 10.4213 7.87407C10.4006 7.83534 10.3706 7.80234 10.334 7.778L7.08067 5.60999H7.08133Z" fill="white" fill-opacity="0.4"/>
</g>
<defs>
<clipPath id="clip0_1_2909">
<rect width="16" height="16" fill="white"/>
</clipPath>
</defs>
</svg>
