<svg width="16" height="16" viewBox="0 0 16 16" fill="none" xmlns="http://www.w3.org/2000/svg">
<g clip-path="url(#clip0_1_3234)">
<path d="M1.99999 2H14C14.1768 2 14.3464 2.07024 14.4714 2.19526C14.5964 2.32029 14.6667 2.48986 14.6667 2.66667V13.3333C14.6667 13.5101 14.5964 13.6797 14.4714 13.8047C14.3464 13.9298 14.1768 14 14 14H1.99999C1.82318 14 1.65361 13.9298 1.52859 13.8047C1.40357 13.6797 1.33333 13.5101 1.33333 13.3333V2.66667C1.33333 2.48986 1.40357 2.32029 1.52859 2.19526C1.65361 2.07024 1.82318 2 1.99999 2ZM2.66666 3.33333V12.6667H13.3333V3.33333H2.66666ZM4.66666 8.66667H6V11.3333H4.66666V8.66667ZM7.33333 4.66667H8.66666V11.3333H7.33333V4.66667ZM10 6.66667H11.3333V11.3333H10V6.66667Z" fill="white" fill-opacity="0.4"/>
</g>
<defs>
<clipPath id="clip0_1_3234">
<rect width="16" height="16" fill="white"/>
</clipPath>
</defs>
</svg>
